<mxfile host="65bd71144e">
    <diagram id="4syE73RUr3pF3KEWYTp1" name="Page-1">
        <mxGraphModel dx="1540" dy="713" grid="1" gridSize="10" guides="1" tooltips="1" connect="1" arrows="1" fold="1" page="1" pageScale="1" pageWidth="3300" pageHeight="4681" math="0" shadow="0">
            <root>
                <mxCell id="0"/>
                <mxCell id="1" parent="0"/>
                <mxCell id="5" value="" style="endArrow=classic;html=1;entryX=0;entryY=0.5;entryDx=0;entryDy=0;" edge="1" parent="1" target="7">
                    <mxGeometry width="50" height="50" relative="1" as="geometry">
                        <mxPoint x="150" y="465" as="sourcePoint"/>
                        <mxPoint x="220" y="460" as="targetPoint"/>
                    </mxGeometry>
                </mxCell>
                <mxCell id="6" value="tokens_head-&amp;gt;content" style="text;html=1;strokeColor=none;fillColor=none;align=center;verticalAlign=middle;whiteSpace=wrap;rounded=0;" vertex="1" parent="1">
                    <mxGeometry x="80" y="430" width="130" height="30" as="geometry"/>
                </mxCell>
                <mxCell id="11" style="edgeStyle=none;html=1;" edge="1" parent="1" source="7">
                    <mxGeometry relative="1" as="geometry">
                        <mxPoint x="390" y="465" as="targetPoint"/>
                    </mxGeometry>
                </mxCell>
                <mxCell id="15" style="edgeStyle=none;html=1;exitX=0.5;exitY=0;exitDx=0;exitDy=0;" edge="1" parent="1" source="7">
                    <mxGeometry relative="1" as="geometry">
                        <mxPoint x="275" y="360" as="targetPoint"/>
                    </mxGeometry>
                </mxCell>
                <mxCell id="7" value="is the content&lt;br&gt;of head a space ot tab" style="rhombus;whiteSpace=wrap;html=1;" vertex="1" parent="1">
                    <mxGeometry x="220" y="410" width="110" height="110" as="geometry"/>
                </mxCell>
                <mxCell id="10" value="return" style="shape=parallelogram;perimeter=parallelogramPerimeter;whiteSpace=wrap;html=1;fixedSize=1;" vertex="1" parent="1">
                    <mxGeometry x="215" y="300" width="120" height="60" as="geometry"/>
                </mxCell>
                <mxCell id="12" value="yes" style="text;html=1;strokeColor=none;fillColor=none;align=center;verticalAlign=middle;whiteSpace=wrap;rounded=0;" vertex="1" parent="1">
                    <mxGeometry x="340" y="435" width="30" height="20" as="geometry"/>
                </mxCell>
                <mxCell id="14" style="edgeStyle=none;html=1;exitX=1;exitY=0.5;exitDx=0;exitDy=0;" edge="1" parent="1" source="13">
                    <mxGeometry relative="1" as="geometry">
                        <mxPoint x="180" y="465" as="targetPoint"/>
                        <Array as="points">
                            <mxPoint x="640" y="465"/>
                            <mxPoint x="640" y="550"/>
                            <mxPoint x="180" y="550"/>
                        </Array>
                    </mxGeometry>
                </mxCell>
                <mxCell id="13" value="1. decrease list size by 1&lt;br&gt;2. tokens_head = tokens_head-&amp;gt;next&lt;br&gt;3. delete the previous head" style="rounded=0;whiteSpace=wrap;html=1;align=left;" vertex="1" parent="1">
                    <mxGeometry x="390" y="435" width="210" height="60" as="geometry"/>
                </mxCell>
                <mxCell id="16" value="no" style="text;html=1;strokeColor=none;fillColor=none;align=center;verticalAlign=middle;whiteSpace=wrap;rounded=0;" vertex="1" parent="1">
                    <mxGeometry x="280" y="380" width="30" height="20" as="geometry"/>
                </mxCell>
                <mxCell id="19" value="if tokens head has a white space as its content-&amp;gt;string (the input starts with space or tab)" style="text;html=1;strokeColor=none;fillColor=none;align=center;verticalAlign=middle;whiteSpace=wrap;rounded=0;" vertex="1" parent="1">
                    <mxGeometry x="80" y="200" width="215" height="80" as="geometry"/>
                </mxCell>
                <mxCell id="21" value="if a white space is in the middle or at the end of the input" style="text;html=1;strokeColor=none;fillColor=none;align=center;verticalAlign=middle;whiteSpace=wrap;rounded=0;" vertex="1" parent="1">
                    <mxGeometry x="80" y="840" width="170" height="40" as="geometry"/>
                </mxCell>
                <mxCell id="23" style="edgeStyle=none;html=1;" edge="1" parent="1" source="22">
                    <mxGeometry relative="1" as="geometry">
                        <mxPoint x="340" y="940" as="targetPoint"/>
                    </mxGeometry>
                </mxCell>
                <mxCell id="22" value="tokens linked list" style="rounded=0;whiteSpace=wrap;html=1;" vertex="1" parent="1">
                    <mxGeometry x="160" y="910" width="120" height="60" as="geometry"/>
                </mxCell>
                <mxCell id="24" value="token (node)" style="text;html=1;strokeColor=none;fillColor=none;align=center;verticalAlign=middle;whiteSpace=wrap;rounded=0;" vertex="1" parent="1">
                    <mxGeometry x="285" y="900" width="50" height="30" as="geometry"/>
                </mxCell>
                <mxCell id="28" style="edgeStyle=none;html=1;" edge="1" parent="1" source="27">
                    <mxGeometry relative="1" as="geometry">
                        <mxPoint x="380" y="840" as="targetPoint"/>
                    </mxGeometry>
                </mxCell>
                <mxCell id="31" style="edgeStyle=none;html=1;" edge="1" parent="1" source="27">
                    <mxGeometry relative="1" as="geometry">
                        <mxPoint x="480" y="940" as="targetPoint"/>
                    </mxGeometry>
                </mxCell>
                <mxCell id="27" value="if end of list" style="rhombus;whiteSpace=wrap;html=1;" vertex="1" parent="1">
                    <mxGeometry x="340" y="900" width="80" height="80" as="geometry"/>
                </mxCell>
                <mxCell id="29" value="yes" style="text;html=1;strokeColor=none;fillColor=none;align=center;verticalAlign=middle;whiteSpace=wrap;rounded=0;" vertex="1" parent="1">
                    <mxGeometry x="390" y="870" width="30" height="20" as="geometry"/>
                </mxCell>
                <mxCell id="30" value="return" style="shape=parallelogram;perimeter=parallelogramPerimeter;whiteSpace=wrap;html=1;fixedSize=1;" vertex="1" parent="1">
                    <mxGeometry x="320" y="780" width="120" height="60" as="geometry"/>
                </mxCell>
                <mxCell id="32" value="no" style="text;html=1;strokeColor=none;fillColor=none;align=center;verticalAlign=middle;whiteSpace=wrap;rounded=0;" vertex="1" parent="1">
                    <mxGeometry x="430" y="910" width="30" height="20" as="geometry"/>
                </mxCell>
                <mxCell id="34" style="edgeStyle=none;html=1;entryX=0.5;entryY=1;entryDx=0;entryDy=0;" edge="1" parent="1" source="33" target="22">
                    <mxGeometry relative="1" as="geometry">
                        <mxPoint x="545" y="1040" as="targetPoint"/>
                        <Array as="points">
                            <mxPoint x="545" y="1050"/>
                            <mxPoint x="220" y="1050"/>
                        </Array>
                    </mxGeometry>
                </mxCell>
                <mxCell id="36" style="edgeStyle=none;html=1;" edge="1" parent="1" source="33">
                    <mxGeometry relative="1" as="geometry">
                        <mxPoint x="670" y="940" as="targetPoint"/>
                    </mxGeometry>
                </mxCell>
                <mxCell id="33" value="if the&lt;br&gt;token-&amp;gt;content-&amp;gt;string is space or tab" style="rhombus;whiteSpace=wrap;html=1;" vertex="1" parent="1">
                    <mxGeometry x="480" y="875" width="130" height="130" as="geometry"/>
                </mxCell>
                <mxCell id="35" value="no" style="text;html=1;strokeColor=none;fillColor=none;align=center;verticalAlign=middle;whiteSpace=wrap;rounded=0;" vertex="1" parent="1">
                    <mxGeometry x="550" y="1010" width="30" height="20" as="geometry"/>
                </mxCell>
                <mxCell id="37" value="yes" style="text;html=1;strokeColor=none;fillColor=none;align=center;verticalAlign=middle;whiteSpace=wrap;rounded=0;" vertex="1" parent="1">
                    <mxGeometry x="620" y="910" width="30" height="20" as="geometry"/>
                </mxCell>
                <mxCell id="40" style="edgeStyle=none;html=1;" edge="1" parent="1" source="39">
                    <mxGeometry relative="1" as="geometry">
                        <mxPoint x="220" y="1050" as="targetPoint"/>
                        <Array as="points">
                            <mxPoint x="740" y="1120"/>
                            <mxPoint x="220" y="1120"/>
                        </Array>
                    </mxGeometry>
                </mxCell>
                <mxCell id="42" style="edgeStyle=none;html=1;entryX=0;entryY=0.5;entryDx=0;entryDy=0;" edge="1" parent="1" source="39" target="43">
                    <mxGeometry relative="1" as="geometry">
                        <mxPoint x="870" y="940" as="targetPoint"/>
                    </mxGeometry>
                </mxCell>
                <mxCell id="39" value="if the&lt;br&gt;token-&amp;gt;content-&amp;gt;qutation is not_quoted" style="rhombus;whiteSpace=wrap;html=1;" vertex="1" parent="1">
                    <mxGeometry x="670" y="872.5" width="140" height="135" as="geometry"/>
                </mxCell>
                <mxCell id="41" value="no" style="text;html=1;strokeColor=none;fillColor=none;align=center;verticalAlign=middle;whiteSpace=wrap;rounded=0;" vertex="1" parent="1">
                    <mxGeometry x="750" y="1050" width="30" height="20" as="geometry"/>
                </mxCell>
                <mxCell id="45" style="edgeStyle=none;html=1;exitX=1;exitY=0.5;exitDx=0;exitDy=0;" edge="1" parent="1" source="43">
                    <mxGeometry relative="1" as="geometry">
                        <mxPoint x="220" y="1120" as="targetPoint"/>
                        <Array as="points">
                            <mxPoint x="1240" y="940"/>
                            <mxPoint x="1240" y="1180"/>
                            <mxPoint x="220" y="1180"/>
                        </Array>
                    </mxGeometry>
                </mxCell>
                <mxCell id="43" value="1. previous_node -&amp;gt; next = current node -&amp;gt; next&lt;br&gt;2. delete current node&lt;br&gt;&lt;div style=&quot;&quot;&gt;&lt;span style=&quot;background-color: initial;&quot;&gt;3. decrease list size by 1&lt;/span&gt;&lt;/div&gt;" style="rounded=0;whiteSpace=wrap;html=1;align=left;" vertex="1" parent="1">
                    <mxGeometry x="920" y="910" width="260" height="60" as="geometry"/>
                </mxCell>
                <mxCell id="44" value="a not_quoted white space" style="text;html=1;strokeColor=none;fillColor=none;align=center;verticalAlign=middle;whiteSpace=wrap;rounded=0;" vertex="1" parent="1">
                    <mxGeometry x="820" y="900" width="80" height="30" as="geometry"/>
                </mxCell>
            </root>
        </mxGraphModel>
    </diagram>
</mxfile>